<svg xmlns="http://www.w3.org/2000/svg" viewBox="0 0 40 40"><defs><style>.cls-1{fill:none;stroke:#ccc;}.cls-2{fill:#07c160;}</style></defs><g id="图层_2" data-name="图层 2"><g id="图层_1-2" data-name="图层 1"><g id="高保真"><g id="_1.其他方式登录" data-name="1.其他方式登录"><g id="hnid_login_wechat" data-name="hnid login wechat"><circle id="Oval-3-Copy-2" class="cls-1" cx="20" cy="20" r="19.5"/><path id="wechat" class="cls-2" d="M24.78,16.51c3.82,0,7.22,2.83,7.22,6.3a6.58,6.58,0,0,1-3,5h0L29.66,30l-2.33-1.3a10.33,10.33,0,0,1-2.55.44c-4,0-7.22-2.83-7.22-6.31S20.74,16.51,24.78,16.51ZM16.49,10c4.18,0,7.84,2.6,8.57,6.1a7.19,7.19,0,0,0-.81-.05A7,7,0,0,0,17,22.92a6.46,6.46,0,0,0,.26,1.82c-.26,0-.53,0-.8,0a14.48,14.48,0,0,1-3-.43h0l-3,1.52.85-2.61A7.15,7.15,0,0,1,8,17.38C8,13.25,11.83,10,16.49,10ZM27.11,20a.87.87,0,0,0,0,1.74,1,1,0,0,0,1.07-.87A1,1,0,0,0,27.11,20Zm-4.67,0a.87.87,0,0,0,0,1.74.89.89,0,1,0,0-1.74Zm-8.71-6.3a1.2,1.2,0,0,0-1.27,1.09,1.19,1.19,0,0,0,1.27,1.08,1.09,1.09,0,0,0,0-2.17Zm5.95,0a1.2,1.2,0,0,0-1.28,1.09,1.2,1.2,0,0,0,1.28,1.08,1,1,0,0,0,1.06-1.08A1,1,0,0,0,19.68,13.69Z"/></g></g></g></g></g></svg>